<?xml version="1.0" encoding="UTF-8" standalone="no"?>
<!-- Created with Inkscape (http://www.inkscape.org/) -->

<svg
   width="189.76772mm"
   height="117.58535mm"
   viewBox="0 0 189.76772 117.58535"
   version="1.1"
   id="svg11631"
   inkscape:export-filename="bitmap.png"
   inkscape:export-xdpi="64.803993"
   inkscape:export-ydpi="64.803993"
   inkscape:version="1.2.2 (732a01da63, 2022-12-09)"
   sodipodi:docname="splash.svg"
   xmlns:inkscape="http://www.inkscape.org/namespaces/inkscape"
   xmlns:sodipodi="http://sodipodi.sourceforge.net/DTD/sodipodi-0.dtd"
   xmlns="http://www.w3.org/2000/svg"
   xmlns:svg="http://www.w3.org/2000/svg">
  <sodipodi:namedview
     id="namedview11633"
     pagecolor="#ffffff"
     bordercolor="#000000"
     borderopacity="0.25"
     inkscape:showpageshadow="2"
     inkscape:pageopacity="0.0"
     inkscape:pagecheckerboard="0"
     inkscape:deskcolor="#d1d1d1"
     inkscape:document-units="mm"
     showgrid="false"
     inkscape:zoom="0.93539563"
     inkscape:cx="481.61439"
     inkscape:cy="296.13138"
     inkscape:window-width="1366"
     inkscape:window-height="705"
     inkscape:window-x="-8"
     inkscape:window-y="-8"
     inkscape:window-maximized="1"
     inkscape:current-layer="layer1" />
  <defs
     id="defs11628" />
  <g
     inkscape:label="Camada 1"
     inkscape:groupmode="layer"
     id="layer1"
     transform="translate(-13.167568,-103.56732)">
    <rect
       style="fill:#000000;fill-opacity:1;stroke:#000000;stroke-width:0.291323;stroke-opacity:1"
       id="rect286"
       width="189.47639"
       height="117.10286"
       x="13.31323"
       y="103.71298" />
    <path
       style="fill:#00ff00;stroke-width:0.264583"
       d="M 13.733356,219.96727 202.59986,110.92514"
       id="path654" />
    <path
       style="fill:#007cff;fill-opacity:1;stroke-width:0.285633;stroke:#000000;stroke-opacity:1"
       d="m 13.385316,196.54128 v 24.61139 H 202.59497 V 154.4782 Z"
       id="path761" />
    <text
       xml:space="preserve"
       style="font-style:normal;font-variant:normal;font-weight:bold;font-stretch:normal;font-size:12.7px;font-family:Arial;-inkscape-font-specification:'Arial Bold';fill:#ffffff;fill-opacity:1;stroke:none;stroke-width:0.264583;stroke-opacity:1"
       x="86.26413"
       y="203.97678"
       id="text7490"><tspan
         sodipodi:role="line"
         id="tspan7488"
         style="fill:#ffffff;stroke-width:0.264583"
         x="86.26413"
         y="203.97678">Genesys PetShop</tspan></text>
    <text
       xml:space="preserve"
       style="font-style:normal;font-variant:normal;font-weight:bold;font-stretch:normal;font-size:6.35px;font-family:Arial;-inkscape-font-specification:'Arial Bold';fill:#ffffff;fill-opacity:1;stroke:none;stroke-width:0.264583;stroke-opacity:1"
       x="179.96494"
       y="213.1357"
       id="text7490-5"><tspan
         sodipodi:role="line"
         id="tspan7488-7"
         style="font-style:normal;font-variant:normal;font-weight:normal;font-stretch:normal;font-size:6.35px;font-family:Arial;-inkscape-font-specification:Arial;fill:#ffffff;stroke-width:0.264583"
         x="179.96494"
         y="213.1357">2.0.0</tspan></text>
    <g
       aria-label="Taimber"
       id="text113"
       style="font-size:25.4px;fill:#ffffff;fill-opacity:1;stroke-width:0.264583"
       transform="matrix(0.57967144,0,0,0.57967144,15.153903,112.41028)">
      <path
         d="M 74.8448,32.658424 H 69.772241 V 47.181568 H 65.753882 V 32.658424 H 60.706128 V 29.396607 H 74.8448 Z"
         style="font-weight:bold;font-family:'Segoe UI';-inkscape-font-specification:'Segoe UI Bold';fill:#ffffff;fill-opacity:1"
         id="path241" />
      <path
         d="m 85.262769,47.181568 h -3.708301 v -1.823144 h -0.04961 q -1.277441,2.133203 -3.782714,2.133203 -1.84795,0 -2.914551,-1.041797 -1.054199,-1.054199 -1.054199,-2.80293 0,-3.695898 4.378027,-4.266406 l 3.447852,-0.458887 q 0,-2.083593 -2.257227,-2.083593 -2.269629,0 -4.316016,1.351855 v -2.951758 q 0.818555,-0.421679 2.232422,-0.74414 1.42627,-0.322461 2.59209,-0.322461 5.432227,0 5.432227,5.419824 z m -3.683496,-5.159375 v -0.855761 l -2.306836,0.297656 q -1.909961,0.248047 -1.909961,1.723926 0,0.669726 0.458886,1.103808 0.471289,0.42168 1.265039,0.42168 1.103809,0 1.79834,-0.756543 0.694532,-0.768945 0.694532,-1.934766 z"
         style="font-weight:bold;font-family:'Segoe UI';-inkscape-font-specification:'Segoe UI Bold';fill:#ffffff;fill-opacity:1"
         id="path243" />
      <path
         d="m 90.347729,32.472389 q -0.992187,0 -1.624707,-0.58291 -0.632519,-0.595313 -0.632519,-1.451075 0,-0.880566 0.632519,-1.438672 0.63252,-0.558105 1.624707,-0.558105 1.00459,0 1.624707,0.558105 0.63252,0.558106 0.63252,1.438672 0,0.892969 -0.63252,1.463477 -0.620117,0.570508 -1.624707,0.570508 z m 1.934766,14.709179 h -3.919141 v -12.7 h 3.919141 z"
         style="font-weight:bold;font-family:'Segoe UI';-inkscape-font-specification:'Segoe UI Bold';fill:#ffffff;fill-opacity:1"
         id="path245" />
      <path
         d="m 115.74773,47.181568 h -3.90674 V 39.9386 q 0,-2.765723 -2.03398,-2.765723 -0.96739,0 -1.5751,0.830957 -0.60772,0.830957 -0.60772,2.071191 v 7.106543 h -3.91914 v -7.317383 q 0,-2.691308 -1.99677,-2.691308 -1.00459,0 -1.61231,0.79375 -0.595311,0.79375 -0.595311,2.158008 v 7.056933 h -3.91914 v -12.7 h 3.91914 v 1.984375 h 0.04961 q 0.607711,-1.016992 1.699121,-1.649511 1.10381,-0.644922 2.40605,-0.644922 2.69131,0 3.6835,2.368847 1.45107,-2.368847 4.26641,-2.368847 4.14238,0 4.14238,5.109765 z"
         style="font-weight:bold;font-family:'Segoe UI';-inkscape-font-specification:'Segoe UI Bold';fill:#ffffff;fill-opacity:1"
         id="path247" />
      <path
         d="m 122.81706,45.705689 h -0.0496 v 1.475879 h -3.91915 V 28.379615 h 3.91915 v 8.011914 h 0.0496 q 1.45108,-2.220019 4.12998,-2.220019 2.45567,0 3.78272,1.686718 1.32705,1.686719 1.32705,4.613672 0,3.175 -1.55029,5.097363 -1.5503,1.922364 -4.14239,1.922364 -2.34404,0 -3.54707,-1.785938 z m -0.11162,-5.357812 v 1.302246 q 0,1.227832 0.70694,2.033984 0.70693,0.806153 1.81074,0.806153 1.33945,0 2.07119,-1.029395 0.74414,-1.041797 0.74414,-2.939355 0,-1.575098 -0.68213,-2.455664 -0.66972,-0.892969 -1.92236,-0.892969 -1.17822,0 -1.95957,0.880566 -0.76895,0.880567 -0.76895,2.294434 z"
         style="font-weight:bold;font-family:'Segoe UI';-inkscape-font-specification:'Segoe UI Bold';fill:#ffffff;fill-opacity:1"
         id="path249" />
      <path
         d="m 146.00944,41.947779 h -8.28476 q 0.19844,2.765723 3.48506,2.765723 2.09599,0 3.68349,-0.992188 v 2.827735 q -1.76113,0.942578 -4.57646,0.942578 -3.07578,0 -4.7749,-1.699121 -1.69913,-1.711524 -1.69913,-4.7625 0,-3.162598 1.83555,-5.010547 1.83555,-1.847949 4.51445,-1.847949 2.77813,0 4.29122,1.649511 1.52548,1.649512 1.52548,4.477246 z m -3.63388,-2.406054 q 0,-2.728516 -2.20762,-2.728516 -0.94258,0 -1.63711,0.781348 -0.68213,0.781347 -0.83096,1.947168 z"
         style="font-weight:bold;font-family:'Segoe UI';-inkscape-font-specification:'Segoe UI Bold';fill:#ffffff;fill-opacity:1"
         id="path251" />
      <path
         d="m 156.62585,38.016236 q -0.70693,-0.384472 -1.64951,-0.384472 -1.27744,0 -1.99678,0.942578 -0.71933,0.930175 -0.71933,2.54248 v 6.064746 h -3.91914 v -12.7 h 3.91914 v 2.356446 h 0.0496 q 0.93017,-2.579688 3.34863,-2.579688 0.62012,0 0.96738,0.148828 z"
         style="font-weight:bold;font-family:'Segoe UI';-inkscape-font-specification:'Segoe UI Bold';fill:#ffffff;fill-opacity:1"
         id="path253" />
    </g>
    <path
       id="rect11939"
       style="fill:#ffffff;fill-opacity:1;stroke-width:0.102248"
       d="m 39.607383,126.30768 -7.14689,-7.22945 -7.22945,7.1469 7.14689,7.22944 z"
       inkscape:export-filename="rect11939.svg"
       inkscape:export-xdpi="26.614822"
       inkscape:export-ydpi="26.614822" />
    <path
       id="rect15377"
       style="fill:#7ec141;fill-opacity:1;stroke-width:0.102248"
       d="m 47.586473,134.37894 -7.14689,-7.22945 -7.22945,7.14689 7.14689,7.22945 z" />
    <path
       id="rect15379"
       style="fill:#ffffff;fill-opacity:1;stroke-width:0.102248"
       d="m 39.515223,142.35803 -7.1469,-7.22946 -7.22945,7.1469 7.1469,7.22945 z" />
    <text
       xml:space="preserve"
       style="font-weight:bold;font-size:7.05556px;font-family:'Segoe UI';-inkscape-font-specification:'Segoe UI Bold';fill:#000000;stroke-width:0.264583"
       x="76.518051"
       y="147.8027"
       id="text236"><tspan
         sodipodi:role="line"
         id="tspan234"
         style="font-size:7.05556px;fill:#ffffff;stroke-width:0.264583"
         x="76.518051"
         y="147.8027">Software</tspan></text>
  </g>
</svg>
