<?xml version="1.0" encoding="UTF-8" standalone="no"?>
<!-- Created with Inkscape (http://www.inkscape.org/) -->

<svg
   width="189.76772mm"
   height="117.58535mm"
   viewBox="0 0 189.76772 117.58535"
   version="1.1"
   id="svg11631"
   inkscape:export-filename="splash.png"
   inkscape:export-xdpi="64.803993"
   inkscape:export-ydpi="64.803993"
   inkscape:version="1.3 (0e150ed6c4, 2023-07-21)"
   sodipodi:docname="splash.svg"
   xmlns:inkscape="http://www.inkscape.org/namespaces/inkscape"
   xmlns:sodipodi="http://sodipodi.sourceforge.net/DTD/sodipodi-0.dtd"
   xmlns="http://www.w3.org/2000/svg"
   xmlns:svg="http://www.w3.org/2000/svg">
  <sodipodi:namedview
     id="namedview11633"
     pagecolor="#ffffff"
     bordercolor="#000000"
     borderopacity="0.25"
     inkscape:showpageshadow="2"
     inkscape:pageopacity="0.0"
     inkscape:pagecheckerboard="0"
     inkscape:deskcolor="#d1d1d1"
     inkscape:document-units="mm"
     showgrid="false"
     inkscape:zoom="0.93539563"
     inkscape:cx="406.24522"
     inkscape:cy="246.4198"
     inkscape:window-width="1366"
     inkscape:window-height="705"
     inkscape:window-x="-8"
     inkscape:window-y="-8"
     inkscape:window-maximized="1"
     inkscape:current-layer="layer1" />
  <defs
     id="defs11628" />
  <g
     inkscape:label="Camada 1"
     inkscape:groupmode="layer"
     id="layer1"
     transform="translate(-13.167568,-103.56732)">
    <rect
       style="fill:#000000;fill-opacity:1;stroke:#000000;stroke-width:0.291323;stroke-opacity:1"
       id="rect286"
       width="189.47639"
       height="117.10286"
       x="13.31323"
       y="103.71298" />
    <g
       id="g2"
       transform="matrix(0.08037977,0,0,0.08037977,26.267144,152.99471)">
      <path
         style="font-size:172.291px;line-height:0;font-family:'And Then It Ends';-inkscape-font-specification:'And Then It Ends';fill:#00e2f4;stroke-width:1.29218"
         d="m 336.62595,-288.10902 h 25.23794 v 25.23794 h 33.65058 v 25.23794 h -33.65058 v 33.65059 q 0,13.96499 9.84279,23.80779 9.8428,9.8428 23.80779,9.8428 v 25.23794 q -24.39667,0 -41.6426,-17.24593 -17.24592,-17.24593 -17.24592,-41.6426 z m 126.18969,117.77706 q 13.965,0 23.80779,-9.8428 9.8428,-9.8428 9.8428,-23.80779 0,-13.96499 -9.8428,-23.80779 -9.84279,-9.8428 -23.80779,-9.8428 -13.96499,0 -23.80779,9.8428 -9.84279,9.8428 -9.84279,23.80779 0,13.96499 9.84279,23.80779 9.8428,9.8428 23.80779,9.8428 z m 58.88853,25.23794 h -25.23794 v -10.43169 q -14.63801,10.43169 -33.65059,10.43169 -24.39667,0 -41.6426,-17.24593 -17.24592,-17.24593 -17.24592,-41.6426 0,-24.39668 17.24592,-41.6426 17.24593,-17.24593 41.6426,-17.24593 24.39668,0 41.6426,17.24593 17.24593,17.24592 17.24593,41.6426 z m 33.65059,-109.36441 v 109.36441 h -25.23794 v -109.36441 z m 0,-33.65059 v 25.23794 h -25.23794 v -25.23794 z m 33.65057,84.12647 v 58.88853 H 563.7674 v -58.88853 q 0,-24.39668 17.24592,-41.6426 17.24593,-17.24593 41.6426,-17.24593 24.39668,0 41.6426,17.24593 2.52379,2.52379 4.62696,5.13171 2.10316,-2.60792 4.62695,-5.13171 17.24593,-17.24593 41.6426,-17.24593 24.39668,0 41.6426,17.24593 17.24593,17.24592 17.24593,41.6426 v 58.88853 h -25.23794 v -58.88853 q 0,-13.96499 -9.8428,-23.80779 -9.84279,-9.8428 -23.80779,-9.8428 -13.96499,0 -23.80779,9.8428 -9.84279,9.8428 -9.84279,23.80779 v 58.88853 h -25.23794 v -58.88853 q 0,-13.96499 -9.8428,-23.80779 -9.8428,-9.8428 -23.80779,-9.8428 -13.96499,0 -23.80779,9.8428 -9.8428,9.8428 -9.8428,23.80779 z m 252.37941,-33.65059 q -13.96499,0 -23.80779,9.8428 -9.84279,9.8428 -9.84279,23.80779 0,13.96499 9.84279,23.80779 9.8428,9.8428 23.80779,9.8428 13.96499,0 23.80779,-9.8428 9.8428,-9.8428 9.8428,-23.80779 0,-13.96499 -9.8428,-23.80779 -9.8428,-9.8428 -23.80779,-9.8428 z m -58.88852,-50.47588 h 25.23794 v 35.66963 q 14.638,-10.43169 33.65058,-10.43169 24.39668,0 41.6426,17.24593 17.24593,17.24592 17.24593,41.6426 0,24.39667 -17.24593,41.6426 -17.24592,17.24593 -41.6426,17.24593 -24.39667,0 -41.6426,-17.24593 -17.24592,-17.24593 -17.24592,-41.6426 z m 216.37323,71.5075 q -2.43966,-6.14123 -7.48725,-11.18882 -9.8428,-9.8428 -23.80779,-9.8428 -13.965,0 -23.80779,9.8428 -5.04759,5.04759 -7.48726,11.18882 z m -4.96346,33.65059 h 28.85541 q -4.2905,11.35707 -13.5444,20.61098 -17.24592,17.24593 -41.64259,17.24593 -24.39668,0 -41.6426,-17.24593 -17.24593,-17.24593 -17.24593,-41.6426 0,-24.39668 17.24593,-41.6426 17.24592,-17.24593 41.6426,-17.24593 24.39667,0 41.64259,17.24593 17.2459,17.24592 17.2459,41.6426 0,6.56186 -1.2619,12.61897 h -88.92164 q 2.43967,6.14123 7.48726,11.18882 9.84279,9.8428 23.80779,9.8428 13.96499,0 23.80779,-9.8428 1.34602,-1.34602 2.52379,-2.77617 z m 40.96961,-21.03162 q 0,-24.39668 17.2459,-41.6426 17.2459,-17.24593 41.6426,-17.24593 v 25.23794 q -13.965,0 -23.8078,9.8428 -9.8428,9.8428 -9.8428,23.80779 v 58.88853 h -25.2379 z"
         id="text1"
         aria-label="taimber" />
      <path
         id="path1"
         style="fill:#00e2f4;stroke-width:1.29218"
         d="m 297.66682,-217.1795 a 75.983986,75.983986 0 0 1 -75.98399,75.98398 75.983986,75.983986 0 0 1 -75.98399,-75.98398 75.983986,75.983986 0 0 1 75.98399,-75.98399 75.983986,75.983986 0 0 1 75.98399,75.98399 z" />
      <path
         id="path1-1"
         style="fill:#00e2f4;stroke-width:1.29218"
         d="M 152.34033,-102.65694 A 75.983986,75.983986 0 0 1 76.356346,-26.672951 75.983986,75.983986 0 0 1 0.37236023,-102.65694 75.983986,75.983986 0 0 1 76.356346,-178.64092 a 75.983986,75.983986 0 0 1 75.983984,75.98398 z" />
      <path
         id="path1-1-7"
         style="fill:#00e2f4;stroke-width:1.29218"
         d="M 151.96797,-330.54602 A 75.983986,75.983986 0 0 1 75.983986,-254.56203 75.983986,75.983986 0 0 1 0,-330.54602 a 75.983986,75.983986 0 0 1 75.983986,-75.98399 75.983986,75.983986 0 0 1 75.983984,75.98399 z" />
    </g>
    <path
       style="fill:#00ff00;stroke-width:0.264583"
       d="M 13.733356,219.96727 202.59986,110.92514"
       id="path654" />
    <path
       style="fill:#007cff;fill-opacity:1;stroke-width:0.285633;stroke:#000000;stroke-opacity:1"
       d="m 13.385316,196.54128 v 24.61139 H 202.59497 V 154.4782 Z"
       id="path761" />
    <text
       xml:space="preserve"
       style="font-style:normal;font-variant:normal;font-weight:bold;font-stretch:normal;font-size:12.7px;font-family:Arial;-inkscape-font-specification:'Arial Bold';fill:#ffffff;fill-opacity:1;stroke:none;stroke-width:0.264583;stroke-opacity:1"
       x="89.835991"
       y="201.33098"
       id="text7490"><tspan
         sodipodi:role="line"
         id="tspan7488"
         style="fill:#ffffff;stroke-width:0.264583"
         x="89.835991"
         y="201.33098">Genesys PetShop</tspan></text>
    <text
       xml:space="preserve"
       style="font-style:normal;font-variant:normal;font-weight:bold;font-stretch:normal;font-size:6.35px;font-family:Arial;-inkscape-font-specification:'Arial Bold';fill:#ffffff;fill-opacity:1;stroke:none;stroke-width:0.264583;stroke-opacity:1"
       x="189.18399"
       y="212.60654"
       id="text7490-5"><tspan
         sodipodi:role="line"
         id="tspan7488-7"
         style="font-style:normal;font-variant:normal;font-weight:normal;font-stretch:normal;font-size:6.35px;font-family:Arial;-inkscape-font-specification:Arial;fill:#ffffff;stroke-width:0.264583"
         x="189.18399"
         y="212.60654">3.0</tspan></text>
    <text
       xml:space="preserve"
       style="font-weight:bold;font-size:7.05556px;font-family:'Segoe UI';-inkscape-font-specification:'Segoe UI Bold';fill:#000000;stroke-width:0.264583"
       x="71.281967"
       y="150.81229"
       id="text236"><tspan
         sodipodi:role="line"
         id="tspan234"
         style="font-style:normal;font-variant:normal;font-weight:normal;font-stretch:normal;font-size:7.05556px;font-family:'And Then It Ends';-inkscape-font-specification:'And Then It Ends';fill:#ffffff;stroke-width:0.264583"
         x="71.281967"
         y="150.81229">Tecnologia</tspan></text>
  </g>
</svg>
